<?xml version="1.0" encoding="UTF-8" standalone="no"?>
<!DOCTYPE svg PUBLIC "-//W3C//DTD SVG 1.1//EN"
 "http://www.w3.org/Graphics/SVG/1.1/DTD/svg11.dtd">
<!-- Generated by graphviz version 2.40.1 (20161225.0304)
 -->
<!-- Title: G Pages: 1 -->
<svg width="490pt" height="445pt"
 viewBox="0.00 0.00 489.90 445.00" xmlns="http://www.w3.org/2000/svg" xmlns:xlink="http://www.w3.org/1999/xlink">
<g id="graph0" class="graph" transform="scale(1 1) rotate(0) translate(4 441)">
<title>G</title>
<polygon fill="#ffffff" stroke="transparent" points="-4,4 -4,-441 485.9045,-441 485.9045,4 -4,4"/>
<!-- A0 -->
<g id="node1" class="node">
<title>A0</title>
<ellipse fill="none" stroke="#000000" cx="225.8945" cy="-426" rx="11" ry="11"/>
</g>
<!-- A1 -->
<g id="node2" class="node">
<title>A1</title>
<polygon fill="#d3d3d3" stroke="#000000" stroke-width="4" points="207.8945,-373.5 207.8945,-377.5 243.8945,-377.5 243.8945,-373.5 207.8945,-373.5"/>
<text text-anchor="middle" x="225.5335" y="-375.2" font-family="Helvetica,sans-Serif" font-size="1.00" fill="#000000"> </text>
</g>
<!-- A0&#45;&gt;A1 -->
<g id="edge1" class="edge">
<title>A0&#45;&gt;A1:n</title>
<path fill="none" stroke="#000000" d="M225.8945,-414.8272C225.8945,-407.5314 225.8945,-397.5539 225.8945,-387.6618"/>
<polygon fill="#000000" stroke="#000000" points="225.8945,-377.5 230.3946,-387.5 225.8945,-382.5 225.8946,-387.5 225.8946,-387.5 225.8946,-387.5 225.8945,-382.5 221.3946,-387.5 225.8945,-377.5 225.8945,-377.5"/>
</g>
<!-- A2 -->
<g id="node3" class="node">
<title>A2</title>
<path fill="none" stroke="#000000" d="M173.8945,-299.5C173.8945,-299.5 203.8945,-299.5 203.8945,-299.5 209.8945,-299.5 215.8945,-305.5 215.8945,-311.5 215.8945,-311.5 215.8945,-323.5 215.8945,-323.5 215.8945,-329.5 209.8945,-335.5 203.8945,-335.5 203.8945,-335.5 173.8945,-335.5 173.8945,-335.5 167.8945,-335.5 161.8945,-329.5 161.8945,-323.5 161.8945,-323.5 161.8945,-311.5 161.8945,-311.5 161.8945,-305.5 167.8945,-299.5 173.8945,-299.5"/>
<text text-anchor="middle" x="188.843" y="-314.5" font-family="Helvetica,sans-Serif" font-size="10.00" fill="#000000">func</text>
</g>
<!-- A1&#45;&gt;A2 -->
<g id="edge2" class="edge">
<title>A1&#45;&gt;A2</title>
<path fill="none" stroke="#000000" d="M224.3047,-373.0078C221.0641,-367.928 213.3749,-355.8748 205.987,-344.2936"/>
<polygon fill="#000000" stroke="#000000" points="200.4747,-335.6527 209.6467,-341.6631 203.1638,-339.868 205.8529,-344.0833 205.8529,-344.0833 205.8529,-344.0833 203.1638,-339.868 202.0591,-346.5035 200.4747,-335.6527 200.4747,-335.6527"/>
</g>
<!-- A9 -->
<g id="node10" class="node">
<title>A9</title>
<path fill="none" stroke="#000000" d="M258.223,-299.5C258.223,-299.5 295.566,-299.5 295.566,-299.5 301.566,-299.5 307.566,-305.5 307.566,-311.5 307.566,-311.5 307.566,-323.5 307.566,-323.5 307.566,-329.5 301.566,-335.5 295.566,-335.5 295.566,-335.5 258.223,-335.5 258.223,-335.5 252.223,-335.5 246.223,-329.5 246.223,-323.5 246.223,-323.5 246.223,-311.5 246.223,-311.5 246.223,-305.5 252.223,-299.5 258.223,-299.5"/>
<text text-anchor="middle" x="276.8945" y="-314.5" font-family="Helvetica,sans-Serif" font-size="10.00" fill="#000000">handler</text>
</g>
<!-- A1&#45;&gt;A9 -->
<g id="edge10" class="edge">
<title>A1&#45;&gt;A9</title>
<path fill="none" stroke="#000000" d="M228.0859,-373.0078C232.6841,-367.7785 243.7799,-355.1597 254.2319,-343.2731"/>
<polygon fill="#000000" stroke="#000000" points="260.9326,-335.6527 257.7086,-346.134 257.6309,-339.4076 254.3293,-343.1624 254.3293,-343.1624 254.3293,-343.1624 257.6309,-339.4076 250.9499,-340.1909 260.9326,-335.6527 260.9326,-335.6527"/>
</g>
<!-- A3 -->
<g id="node4" class="node">
<title>A3</title>
<polygon fill="none" stroke="#000000" points="160.8945,-262 142.8945,-244 160.8945,-226 178.8945,-244 160.8945,-262"/>
</g>
<!-- A2&#45;&gt;A3 -->
<g id="edge3" class="edge">
<title>A2&#45;&gt;A3</title>
<path fill="none" stroke="#000000" d="M181.9731,-299.3315C178.1932,-289.4092 173.4791,-277.0346 169.468,-266.5055"/>
<polygon fill="#000000" stroke="#000000" points="165.8913,-257.1165 173.6565,-264.8594 167.6713,-261.7889 169.4513,-266.4614 169.4513,-266.4614 169.4513,-266.4614 167.6713,-261.7889 165.2461,-268.0634 165.8913,-257.1165 165.8913,-257.1165"/>
</g>
<!-- A4 -->
<g id="node5" class="node">
<title>A4</title>
<path fill="none" stroke="#000000" d="M12,-141.5C12,-141.5 73.789,-141.5 73.789,-141.5 79.789,-141.5 85.789,-147.5 85.789,-153.5 85.789,-153.5 85.789,-165.5 85.789,-165.5 85.789,-171.5 79.789,-177.5 73.789,-177.5 73.789,-177.5 12,-177.5 12,-177.5 6,-177.5 0,-171.5 0,-165.5 0,-165.5 0,-153.5 0,-153.5 0,-147.5 6,-141.5 12,-141.5"/>
<text text-anchor="middle" x="42.8945" y="-156.5" font-family="Helvetica,sans-Serif" font-size="10.00" fill="#000000">func wrapper</text>
</g>
<!-- A3&#45;&gt;A4 -->
<g id="edge4" class="edge">
<title>A3&#45;&gt;A4</title>
<path fill="none" stroke="#000000" d="M148.3733,-238.3794C134.6217,-231.9424 112.167,-220.6415 94.6585,-208 85.1794,-201.1559 75.6119,-192.7179 67.3252,-184.8095"/>
<polygon fill="#000000" stroke="#000000" points="60.1143,-177.7564 70.4098,-181.5318 63.6887,-181.2526 67.2632,-184.7488 67.2632,-184.7488 67.2632,-184.7488 63.6887,-181.2526 64.1166,-187.9658 60.1143,-177.7564 60.1143,-177.7564"/>
<text text-anchor="middle" x="126.0125" y="-199" font-family="Helvetica,sans-Serif" font-size="10.00" fill="#000000">[ simple path ]</text>
</g>
<!-- A7 -->
<g id="node8" class="node">
<title>A7</title>
<path fill="none" stroke="#000000" d="M116.1075,-141.5C116.1075,-141.5 205.6815,-141.5 205.6815,-141.5 211.6815,-141.5 217.6815,-147.5 217.6815,-153.5 217.6815,-153.5 217.6815,-165.5 217.6815,-165.5 217.6815,-171.5 211.6815,-177.5 205.6815,-177.5 205.6815,-177.5 116.1075,-177.5 116.1075,-177.5 110.1075,-177.5 104.1075,-171.5 104.1075,-165.5 104.1075,-165.5 104.1075,-153.5 104.1075,-153.5 104.1075,-147.5 110.1075,-141.5 116.1075,-141.5"/>
<text text-anchor="middle" x="160.8945" y="-156.5" font-family="Helvetica,sans-Serif" font-size="10.00" fill="#000000">regex func wrapper</text>
</g>
<!-- A3&#45;&gt;A7 -->
<g id="edge7" class="edge">
<title>A3&#45;&gt;A7</title>
<path fill="none" stroke="#000000" d="M160.8945,-225.6648C160.8945,-214.6274 160.8945,-200.3432 160.8945,-187.8733"/>
<polygon fill="#000000" stroke="#000000" points="160.8945,-177.5092 165.3946,-187.5091 160.8945,-182.5092 160.8946,-187.5092 160.8946,-187.5092 160.8946,-187.5092 160.8945,-182.5092 156.3946,-187.5092 160.8945,-177.5092 160.8945,-177.5092"/>
<text text-anchor="middle" x="190.073" y="-199" font-family="Helvetica,sans-Serif" font-size="10.00" fill="#000000">[ regex path ]</text>
</g>
<!-- A5 -->
<g id="node6" class="node">
<title>A5</title>
<path fill="none" stroke="#000000" d="M131.339,-67.5C131.339,-67.5 186.45,-67.5 186.45,-67.5 192.45,-67.5 198.45,-73.5 198.45,-79.5 198.45,-79.5 198.45,-91.5 198.45,-91.5 198.45,-97.5 192.45,-103.5 186.45,-103.5 186.45,-103.5 131.339,-103.5 131.339,-103.5 125.339,-103.5 119.339,-97.5 119.339,-91.5 119.339,-91.5 119.339,-79.5 119.339,-79.5 119.339,-73.5 125.339,-67.5 131.339,-67.5"/>
<text text-anchor="middle" x="158.8945" y="-82.5" font-family="Helvetica,sans-Serif" font-size="10.00" fill="#000000">simple map</text>
</g>
<!-- A4&#45;&gt;A5 -->
<g id="edge5" class="edge">
<title>A4&#45;&gt;A5</title>
<path fill="none" stroke="#000000" d="M71.2713,-141.3976C86.4383,-131.7221 105.2996,-119.6898 121.6337,-109.2698"/>
<polygon fill="#000000" stroke="#000000" points="130.4086,-103.672 124.3982,-112.844 126.1933,-106.3611 121.978,-109.0502 121.978,-109.0502 121.978,-109.0502 126.1933,-106.3611 119.5578,-105.2564 130.4086,-103.672 130.4086,-103.672"/>
</g>
<!-- A6 -->
<g id="node7" class="node">
<title>A6</title>
<ellipse fill="none" stroke="#000000" cx="205.8945" cy="-15" rx="11" ry="11"/>
<ellipse fill="none" stroke="#000000" cx="205.8945" cy="-15" rx="15" ry="15"/>
</g>
<!-- A5&#45;&gt;A6 -->
<g id="edge6" class="edge">
<title>A5&#45;&gt;A6</title>
<path fill="none" stroke="#000000" d="M170.9982,-67.3445C177.3287,-57.8487 185.115,-46.1692 191.7254,-36.2537"/>
<polygon fill="#000000" stroke="#000000" points="197.39,-27.7568 195.5872,-38.5735 194.6164,-31.9171 191.8429,-36.0773 191.8429,-36.0773 191.8429,-36.0773 194.6164,-31.9171 188.0987,-33.5812 197.39,-27.7568 197.39,-27.7568"/>
</g>
<!-- A8 -->
<g id="node9" class="node">
<title>A8</title>
<path fill="none" stroke="#000000" d="M228.2785,-67.5C228.2785,-67.5 279.5105,-67.5 279.5105,-67.5 285.5105,-67.5 291.5105,-73.5 291.5105,-79.5 291.5105,-79.5 291.5105,-91.5 291.5105,-91.5 291.5105,-97.5 285.5105,-103.5 279.5105,-103.5 279.5105,-103.5 228.2785,-103.5 228.2785,-103.5 222.2785,-103.5 216.2785,-97.5 216.2785,-91.5 216.2785,-91.5 216.2785,-79.5 216.2785,-79.5 216.2785,-73.5 222.2785,-67.5 228.2785,-67.5"/>
<text text-anchor="middle" x="253.8945" y="-82.5" font-family="Helvetica,sans-Serif" font-size="10.00" fill="#000000">regex map</text>
</g>
<!-- A7&#45;&gt;A8 -->
<g id="edge8" class="edge">
<title>A7&#45;&gt;A8</title>
<path fill="none" stroke="#000000" d="M183.8833,-141.2079C195.7084,-131.7986 210.2865,-120.1988 223.0731,-110.0245"/>
<polygon fill="#000000" stroke="#000000" points="231.1702,-103.5817 226.147,-113.3295 227.2576,-106.6949 223.3451,-109.8082 223.3451,-109.8082 223.3451,-109.8082 227.2576,-106.6949 220.5432,-106.2869 231.1702,-103.5817 231.1702,-103.5817"/>
</g>
<!-- A8&#45;&gt;A6 -->
<g id="edge9" class="edge">
<title>A8&#45;&gt;A6</title>
<path fill="none" stroke="#000000" d="M241.5333,-67.3445C235.0681,-57.8487 227.1161,-46.1692 220.3651,-36.2537"/>
<polygon fill="#000000" stroke="#000000" points="214.58,-27.7568 223.9276,-33.4902 217.394,-31.8898 220.2079,-36.0228 220.2079,-36.0228 220.2079,-36.0228 217.394,-31.8898 216.4882,-38.5554 214.58,-27.7568 214.58,-27.7568"/>
</g>
<!-- A10 -->
<g id="node11" class="node">
<title>A10</title>
<polygon fill="none" stroke="#000000" points="285.8945,-262 267.8945,-244 285.8945,-226 303.8945,-244 285.8945,-262"/>
</g>
<!-- A9&#45;&gt;A10 -->
<g id="edge11" class="edge">
<title>A9&#45;&gt;A10</title>
<path fill="none" stroke="#000000" d="M279.1192,-299.3315C280.1782,-290.6832 281.4653,-280.1719 282.632,-270.6434"/>
<polygon fill="#000000" stroke="#000000" points="283.8796,-260.4548 287.1308,-270.9276 283.2719,-265.4177 282.6641,-270.3807 282.6641,-270.3807 282.6641,-270.3807 283.2719,-265.4177 278.1975,-269.8337 283.8796,-260.4548 283.8796,-260.4548"/>
</g>
<!-- A11 -->
<g id="node12" class="node">
<title>A11</title>
<path fill="none" stroke="#000000" d="M247.777,-141.5C247.777,-141.5 324.012,-141.5 324.012,-141.5 330.012,-141.5 336.012,-147.5 336.012,-153.5 336.012,-153.5 336.012,-165.5 336.012,-165.5 336.012,-171.5 330.012,-177.5 324.012,-177.5 324.012,-177.5 247.777,-177.5 247.777,-177.5 241.777,-177.5 235.777,-171.5 235.777,-165.5 235.777,-165.5 235.777,-153.5 235.777,-153.5 235.777,-147.5 241.777,-141.5 247.777,-141.5"/>
<text text-anchor="middle" x="285.8945" y="-156.5" font-family="Helvetica,sans-Serif" font-size="10.00" fill="#000000">handler wrapper</text>
</g>
<!-- A10&#45;&gt;A11 -->
<g id="edge12" class="edge">
<title>A10&#45;&gt;A11</title>
<path fill="none" stroke="#000000" d="M285.8945,-225.6648C285.8945,-214.6274 285.8945,-200.3432 285.8945,-187.8733"/>
<polygon fill="#000000" stroke="#000000" points="285.8945,-177.5092 290.3946,-187.5091 285.8945,-182.5092 285.8946,-187.5092 285.8946,-187.5092 285.8946,-187.5092 285.8945,-182.5092 281.3946,-187.5092 285.8945,-177.5092 285.8945,-177.5092"/>
<text text-anchor="middle" x="317.0125" y="-199" font-family="Helvetica,sans-Serif" font-size="10.00" fill="#000000">[ simple path ]</text>
</g>
<!-- A12 -->
<g id="node13" class="node">
<title>A12</title>
<path fill="none" stroke="#000000" d="M365.8845,-141.5C365.8845,-141.5 469.9045,-141.5 469.9045,-141.5 475.9045,-141.5 481.9045,-147.5 481.9045,-153.5 481.9045,-153.5 481.9045,-165.5 481.9045,-165.5 481.9045,-171.5 475.9045,-177.5 469.9045,-177.5 469.9045,-177.5 365.8845,-177.5 365.8845,-177.5 359.8845,-177.5 353.8845,-171.5 353.8845,-165.5 353.8845,-165.5 353.8845,-153.5 353.8845,-153.5 353.8845,-147.5 359.8845,-141.5 365.8845,-141.5"/>
<text text-anchor="middle" x="417.8945" y="-156.5" font-family="Helvetica,sans-Serif" font-size="10.00" fill="#000000">regex handler wrapper</text>
</g>
<!-- A10&#45;&gt;A12 -->
<g id="edge14" class="edge">
<title>A10&#45;&gt;A12</title>
<path fill="none" stroke="#000000" d="M298.3419,-237.8448C311.8267,-231.0318 333.8335,-219.4886 351.8945,-208 363.539,-200.593 375.8404,-191.8313 386.6271,-183.8067"/>
<polygon fill="#000000" stroke="#000000" points="394.9115,-177.5691 389.6295,-187.179 390.9171,-180.5766 386.9227,-183.5841 386.9227,-183.5841 386.9227,-183.5841 390.9171,-180.5766 384.2159,-179.9891 394.9115,-177.5691 394.9115,-177.5691"/>
<text text-anchor="middle" x="397.073" y="-199" font-family="Helvetica,sans-Serif" font-size="10.00" fill="#000000">[ regex path ]</text>
</g>
<!-- A11&#45;&gt;A5 -->
<g id="edge13" class="edge">
<title>A11&#45;&gt;A5</title>
<path fill="none" stroke="#000000" d="M254.8268,-141.3976C238.0678,-131.6325 217.1889,-119.4668 199.1927,-108.9808"/>
<polygon fill="#000000" stroke="#000000" points="190.0816,-103.672 200.9874,-104.8184 194.4018,-106.1893 198.7219,-108.7066 198.7219,-108.7066 198.7219,-108.7066 194.4018,-106.1893 196.4564,-112.5947 190.0816,-103.672 190.0816,-103.672"/>
</g>
<!-- A12&#45;&gt;A8 -->
<g id="edge15" class="edge">
<title>A12&#45;&gt;A8</title>
<path fill="none" stroke="#000000" d="M377.7756,-141.3976C354.5864,-130.9342 325.2889,-117.7146 301.0078,-106.7585"/>
<polygon fill="#000000" stroke="#000000" points="291.6296,-102.5268 302.5955,-102.538 296.1871,-104.5833 300.7446,-106.6397 300.7446,-106.6397 300.7446,-106.6397 296.1871,-104.5833 298.8938,-110.7415 291.6296,-102.5268 291.6296,-102.5268"/>
</g>
</g>
</svg>
